<svg viewBox="-375.5415 113.3799 999.9975 256.5976" xmlns="http://www.w3.org/2000/svg">
  <g transform="matrix(1.5756199359893799, 0, 0, 1.5756199359893799, -562.8779296875, -297.486328125)">
    <g transform="matrix(2.64467,0,0,0.334298,-1049.23,208.601)">
      <path d="M470.845,156.04C486.936,156.04 500,259.712 500,387.406C500,515.1 486.936,618.771 470.845,618.771C454.754,618.771 441.691,515.1 441.691,387.406C441.691,259.712 454.754,156.04 470.845,156.04ZM462.427,277.312C458.641,327.597 454.598,381.281 452.242,412.589C449.797,445.065 450.477,486.559 453.888,513.029C455.626,526.478 457.849,534.555 460.271,534.555L481.592,534.555C484.474,534.555 487.074,523.122 488.91,504.811C491.519,478.794 491.889,442.907 489.848,413.888L480.39,279.41C478.588,253.781 474.781,219.004 471.074,218.571C467.367,218.138 464.325,252.115 462.427,277.312Z" style="fill:rgb(239,212,0);stroke:white;stroke-width:0.34px;"/>
    </g>
    <g transform="matrix(0.713025,0,0,0.0901295,-139.724,313.661)">
      <ellipse cx="470.845" cy="387.406" rx="29.155" ry="231.365" style="fill:rgb(211,170,0);"/>
    </g>
  </g>
  <g transform="matrix(4.575260162353516, 0, 0, 4.575260162353516, -1311.7808837890625, -1197.3782958984375)">
    <g transform="matrix(50,0,0,50,262.487,328.483)">
      <path d="M0.063,-0L0.063,-0.727L0.214,-0.727L0.214,-0.454L0.219,-0.454C0.226,-0.469 0.235,-0.484 0.248,-0.499C0.261,-0.514 0.277,-0.527 0.298,-0.537C0.318,-0.547 0.344,-0.553 0.374,-0.553C0.414,-0.553 0.451,-0.542 0.484,-0.522C0.518,-0.501 0.545,-0.47 0.565,-0.428C0.585,-0.387 0.595,-0.335 0.595,-0.272C0.595,-0.211 0.585,-0.16 0.566,-0.118C0.546,-0.076 0.52,-0.045 0.486,-0.023C0.453,-0.002 0.415,0.009 0.374,0.009C0.345,0.009 0.32,0.004 0.299,-0.006C0.279,-0.016 0.262,-0.028 0.249,-0.043C0.236,-0.057 0.226,-0.072 0.219,-0.087L0.212,-0.087L0.212,-0L0.063,-0ZM0.211,-0.273C0.211,-0.24 0.216,-0.212 0.225,-0.188C0.234,-0.164 0.247,-0.145 0.264,-0.132C0.281,-0.118 0.302,-0.112 0.326,-0.112C0.351,-0.112 0.372,-0.118 0.389,-0.132C0.406,-0.146 0.419,-0.165 0.427,-0.189C0.436,-0.213 0.441,-0.241 0.441,-0.273C0.441,-0.304 0.436,-0.332 0.428,-0.356C0.419,-0.38 0.406,-0.399 0.389,-0.412C0.372,-0.425 0.351,-0.432 0.326,-0.432C0.301,-0.432 0.281,-0.426 0.264,-0.413C0.247,-0.399 0.234,-0.381 0.225,-0.357C0.216,-0.333 0.211,-0.305 0.211,-0.273Z" style="fill:rgb(239,212,0);fill-rule:nonzero;"/>
    </g>
    <g transform="matrix(50,0,0,50,294.249,328.483)">
      <path d="M0.061,-0L0.061,-0.545L0.207,-0.545L0.207,-0.45L0.213,-0.45C0.223,-0.484 0.239,-0.51 0.263,-0.527C0.286,-0.544 0.313,-0.553 0.344,-0.553C0.351,-0.553 0.359,-0.553 0.368,-0.552C0.377,-0.551 0.385,-0.55 0.391,-0.548L0.391,-0.414C0.384,-0.416 0.374,-0.418 0.362,-0.419C0.349,-0.421 0.338,-0.422 0.327,-0.422C0.305,-0.422 0.285,-0.417 0.268,-0.407C0.25,-0.398 0.237,-0.385 0.227,-0.368C0.217,-0.351 0.212,-0.331 0.212,-0.309L0.212,-0L0.061,-0Z" style="fill:rgb(239,212,0);fill-rule:nonzero;"/>
    </g>
    <g transform="matrix(50,0,0,50,314.689,328.483)">
      <path d="M0.061,-0L0.061,-0.545L0.212,-0.545L0.212,-0L0.061,-0ZM0.136,-0.616C0.114,-0.616 0.095,-0.623 0.079,-0.638C0.063,-0.653 0.055,-0.671 0.055,-0.692C0.055,-0.713 0.063,-0.731 0.079,-0.746C0.095,-0.761 0.114,-0.769 0.136,-0.769C0.159,-0.769 0.178,-0.761 0.194,-0.746C0.21,-0.731 0.218,-0.713 0.218,-0.692C0.218,-0.671 0.21,-0.653 0.194,-0.638C0.178,-0.623 0.159,-0.616 0.136,-0.616Z" style="fill:rgb(239,212,0);fill-rule:nonzero;"/>
    </g>
    <g transform="matrix(50,0,0,50,328.297,328.483)">
      <path d="M0.309,0.011C0.253,0.011 0.205,-0.001 0.164,-0.024C0.124,-0.046 0.093,-0.079 0.071,-0.121C0.049,-0.163 0.038,-0.213 0.038,-0.27C0.038,-0.326 0.049,-0.376 0.071,-0.418C0.093,-0.46 0.124,-0.493 0.163,-0.517C0.203,-0.541 0.249,-0.553 0.303,-0.553C0.339,-0.553 0.373,-0.547 0.404,-0.535C0.435,-0.524 0.462,-0.507 0.485,-0.484C0.509,-0.461 0.527,-0.432 0.54,-0.397C0.553,-0.362 0.559,-0.322 0.559,-0.276L0.559,-0.234L0.099,-0.234L0.099,-0.328L0.417,-0.328C0.417,-0.35 0.412,-0.369 0.403,-0.386C0.393,-0.402 0.38,-0.416 0.363,-0.425C0.347,-0.435 0.327,-0.44 0.305,-0.44C0.283,-0.44 0.262,-0.434 0.245,-0.424C0.227,-0.413 0.213,-0.399 0.203,-0.381C0.193,-0.364 0.188,-0.344 0.188,-0.323L0.188,-0.234C0.188,-0.207 0.193,-0.183 0.203,-0.164C0.213,-0.144 0.227,-0.129 0.246,-0.118C0.264,-0.108 0.286,-0.102 0.311,-0.102C0.328,-0.102 0.344,-0.105 0.358,-0.109C0.371,-0.114 0.383,-0.121 0.393,-0.131C0.404,-0.14 0.411,-0.152 0.416,-0.165L0.556,-0.156C0.549,-0.123 0.534,-0.093 0.513,-0.068C0.491,-0.043 0.463,-0.024 0.428,-0.01C0.394,0.004 0.354,0.011 0.309,0.011Z" style="fill:rgb(239,212,0);fill-rule:nonzero;"/>
    </g>
    <g transform="matrix(50,0,0,50,358.183,328.483)">
      <path d="M0.354,-0.545L0.354,-0.432L0.017,-0.432L0.017,-0.545L0.354,-0.545ZM0.094,-0L0.094,-0.585C0.094,-0.624 0.102,-0.657 0.117,-0.683C0.133,-0.709 0.154,-0.729 0.181,-0.742C0.208,-0.755 0.239,-0.761 0.273,-0.761C0.296,-0.761 0.317,-0.76 0.337,-0.756C0.356,-0.752 0.37,-0.749 0.38,-0.746L0.353,-0.633C0.347,-0.635 0.34,-0.637 0.331,-0.638C0.323,-0.64 0.314,-0.641 0.305,-0.641C0.282,-0.641 0.267,-0.635 0.258,-0.625C0.25,-0.615 0.245,-0.601 0.245,-0.582L0.245,-0L0.094,-0Z" style="fill:rgb(239,212,0);fill-rule:nonzero;"/>
    </g>
    <g transform="matrix(50,0,0,50,377.459,328.483)">
      <rect x="0.061" y="-0.727" width="0.151" height="0.727" style="fill:rgb(239,212,0);fill-rule:nonzero;"/>
    </g>
    <g transform="matrix(50,0,0,50,391.067,328.483)">
      <path d="M0.154,0.205C0.135,0.205 0.117,0.203 0.1,0.2C0.083,0.197 0.069,0.193 0.059,0.189L0.093,0.076C0.11,0.081 0.126,0.084 0.141,0.085C0.155,0.085 0.167,0.082 0.178,0.075C0.189,0.068 0.197,0.056 0.204,0.039L0.213,0.016L0.017,-0.545L0.176,-0.545L0.289,-0.145L0.295,-0.145L0.409,-0.545L0.569,-0.545L0.357,0.059C0.347,0.088 0.333,0.114 0.315,0.136C0.298,0.158 0.276,0.175 0.25,0.187C0.223,0.199 0.191,0.205 0.154,0.205Z" style="fill:rgb(239,212,0);fill-rule:nonzero;"/>
    </g>
    <g transform="matrix(50,0,0,50,420.356,328.483)"/>
  </g>
  <g transform="matrix(0.5204200148582458, 0, 0, 0.06578399986028671, 364.2460327148438, 261.7416687011719)">
    <ellipse cx="470.845" cy="387.406" rx="29.155" ry="231.365" style="fill:rgb(211,170,0);"/>
  </g>
  <g transform="matrix(0.2241469770669937, 0, 0, 0.2241469770669937, -118.44994354248047, 217.07366943359375)">
    <g transform="matrix(203.087,0,0,203.087,101.6,640.526)">
      <path d="M0.063,-0L0.063,-0.727L0.214,-0.727L0.214,-0.454L0.219,-0.454C0.226,-0.469 0.235,-0.484 0.248,-0.499C0.261,-0.514 0.277,-0.527 0.298,-0.537C0.318,-0.547 0.344,-0.553 0.374,-0.553C0.414,-0.553 0.451,-0.542 0.484,-0.522C0.518,-0.501 0.545,-0.47 0.565,-0.428C0.585,-0.387 0.595,-0.335 0.595,-0.272C0.595,-0.211 0.585,-0.16 0.566,-0.118C0.546,-0.076 0.52,-0.045 0.486,-0.023C0.453,-0.002 0.415,0.009 0.374,0.009C0.345,0.009 0.32,0.004 0.299,-0.006C0.279,-0.016 0.262,-0.028 0.249,-0.043C0.236,-0.057 0.226,-0.072 0.219,-0.087L0.212,-0.087L0.212,-0L0.063,-0ZM0.211,-0.273C0.211,-0.24 0.216,-0.212 0.225,-0.188C0.234,-0.164 0.247,-0.145 0.264,-0.132C0.281,-0.118 0.302,-0.112 0.326,-0.112C0.351,-0.112 0.372,-0.118 0.389,-0.132C0.406,-0.146 0.419,-0.165 0.427,-0.189C0.436,-0.213 0.441,-0.241 0.441,-0.273C0.441,-0.304 0.436,-0.332 0.428,-0.356C0.419,-0.38 0.406,-0.399 0.389,-0.412C0.372,-0.425 0.351,-0.432 0.326,-0.432C0.301,-0.432 0.281,-0.426 0.264,-0.413C0.247,-0.399 0.234,-0.381 0.225,-0.357C0.216,-0.333 0.211,-0.305 0.211,-0.273Z" style="fill:rgb(211,170,0);fill-rule:nonzero;"/>
    </g>
    <g transform="matrix(203.087,0,0,203.087,226.568,640.526)">
      <path d="M0.154,0.205C0.135,0.205 0.117,0.203 0.1,0.2C0.083,0.197 0.069,0.193 0.059,0.189L0.093,0.076C0.11,0.081 0.126,0.084 0.141,0.085C0.155,0.085 0.167,0.082 0.178,0.075C0.189,0.068 0.197,0.056 0.204,0.039L0.213,0.016L0.017,-0.545L0.176,-0.545L0.289,-0.145L0.295,-0.145L0.409,-0.545L0.569,-0.545L0.357,0.059C0.347,0.088 0.333,0.114 0.315,0.136C0.298,0.158 0.276,0.175 0.25,0.187C0.223,0.199 0.191,0.205 0.154,0.205Z" style="fill:rgb(211,170,0);fill-rule:nonzero;"/>
    </g>
    <g transform="matrix(203.087,0,0,203.087,345.536,640.526)"/>
    <g transform="matrix(203.087,0,0,203.087,392.616,640.526)">
      <path d="M0.216,0.01C0.181,0.01 0.15,0.004 0.123,-0.008C0.096,-0.02 0.074,-0.038 0.059,-0.062C0.043,-0.086 0.035,-0.116 0.035,-0.152C0.035,-0.183 0.04,-0.208 0.051,-0.229C0.063,-0.249 0.078,-0.266 0.097,-0.278C0.116,-0.291 0.138,-0.3 0.162,-0.307C0.187,-0.313 0.213,-0.318 0.24,-0.32C0.271,-0.324 0.297,-0.327 0.316,-0.33C0.336,-0.333 0.35,-0.337 0.359,-0.343C0.367,-0.349 0.372,-0.358 0.372,-0.369L0.372,-0.371C0.372,-0.394 0.365,-0.411 0.351,-0.424C0.336,-0.436 0.317,-0.442 0.291,-0.442C0.264,-0.442 0.242,-0.436 0.226,-0.424C0.21,-0.412 0.199,-0.397 0.194,-0.379L0.054,-0.391C0.061,-0.424 0.075,-0.452 0.096,-0.477C0.117,-0.501 0.144,-0.52 0.177,-0.533C0.21,-0.546 0.248,-0.553 0.291,-0.553C0.322,-0.553 0.351,-0.549 0.379,-0.542C0.407,-0.535 0.431,-0.524 0.453,-0.509C0.474,-0.494 0.492,-0.475 0.504,-0.452C0.517,-0.428 0.523,-0.4 0.523,-0.368L0.523,-0L0.38,-0L0.38,-0.076L0.375,-0.076C0.366,-0.059 0.355,-0.044 0.34,-0.031C0.326,-0.018 0.308,-0.008 0.287,-0.001C0.267,0.007 0.243,0.01 0.216,0.01ZM0.259,-0.094C0.282,-0.094 0.301,-0.098 0.318,-0.107C0.335,-0.116 0.349,-0.128 0.358,-0.144C0.368,-0.159 0.373,-0.176 0.373,-0.195L0.373,-0.253C0.368,-0.25 0.362,-0.247 0.354,-0.245C0.345,-0.242 0.336,-0.24 0.326,-0.238C0.316,-0.236 0.306,-0.234 0.296,-0.233C0.285,-0.231 0.276,-0.23 0.268,-0.228C0.25,-0.226 0.235,-0.222 0.221,-0.216C0.208,-0.21 0.198,-0.203 0.19,-0.193C0.183,-0.183 0.179,-0.172 0.179,-0.157C0.179,-0.137 0.187,-0.121 0.202,-0.11C0.217,-0.099 0.236,-0.094 0.259,-0.094Z" style="fill:rgb(211,170,0);fill-rule:nonzero;"/>
    </g>
    <g transform="matrix(203.087,0,0,203.087,510.429,640.526)">
      <path d="M0.061,-0L0.061,-0.545L0.207,-0.545L0.207,-0.45L0.213,-0.45C0.223,-0.484 0.239,-0.51 0.263,-0.527C0.286,-0.544 0.313,-0.553 0.344,-0.553C0.351,-0.553 0.359,-0.553 0.368,-0.552C0.377,-0.551 0.385,-0.55 0.391,-0.548L0.391,-0.414C0.384,-0.416 0.374,-0.418 0.362,-0.419C0.349,-0.421 0.338,-0.422 0.327,-0.422C0.305,-0.422 0.285,-0.417 0.268,-0.407C0.25,-0.398 0.237,-0.385 0.227,-0.368C0.217,-0.351 0.212,-0.331 0.212,-0.309L0.212,-0L0.061,-0Z" style="fill:rgb(211,170,0);fill-rule:nonzero;"/>
    </g>
    <g transform="matrix(203.087,0,0,203.087,596.914,640.526)">
      <path d="M0.154,0.205C0.135,0.205 0.117,0.203 0.1,0.2C0.083,0.197 0.069,0.193 0.059,0.189L0.093,0.076C0.11,0.081 0.126,0.084 0.141,0.085C0.155,0.085 0.167,0.082 0.178,0.075C0.189,0.068 0.197,0.056 0.204,0.039L0.213,0.016L0.017,-0.545L0.176,-0.545L0.289,-0.145L0.295,-0.145L0.409,-0.545L0.569,-0.545L0.357,0.059C0.347,0.088 0.333,0.114 0.315,0.136C0.298,0.158 0.276,0.175 0.25,0.187C0.223,0.199 0.191,0.205 0.154,0.205Z" style="fill:rgb(211,170,0);fill-rule:nonzero;"/>
    </g>
    <g transform="matrix(203.087,0,0,203.087,712.42,640.526)">
      <path d="M0.216,0.01C0.181,0.01 0.15,0.004 0.123,-0.008C0.096,-0.02 0.074,-0.038 0.059,-0.062C0.043,-0.086 0.035,-0.116 0.035,-0.152C0.035,-0.183 0.04,-0.208 0.051,-0.229C0.063,-0.249 0.078,-0.266 0.097,-0.278C0.116,-0.291 0.138,-0.3 0.162,-0.307C0.187,-0.313 0.213,-0.318 0.24,-0.32C0.271,-0.324 0.297,-0.327 0.316,-0.33C0.336,-0.333 0.35,-0.337 0.359,-0.343C0.367,-0.349 0.372,-0.358 0.372,-0.369L0.372,-0.371C0.372,-0.394 0.365,-0.411 0.351,-0.424C0.336,-0.436 0.317,-0.442 0.291,-0.442C0.264,-0.442 0.242,-0.436 0.226,-0.424C0.21,-0.412 0.199,-0.397 0.194,-0.379L0.054,-0.391C0.061,-0.424 0.075,-0.452 0.096,-0.477C0.117,-0.501 0.144,-0.52 0.177,-0.533C0.21,-0.546 0.248,-0.553 0.291,-0.553C0.322,-0.553 0.351,-0.549 0.379,-0.542C0.407,-0.535 0.431,-0.524 0.453,-0.509C0.474,-0.494 0.492,-0.475 0.504,-0.452C0.517,-0.428 0.523,-0.4 0.523,-0.368L0.523,-0L0.38,-0L0.38,-0.076L0.375,-0.076C0.366,-0.059 0.355,-0.044 0.34,-0.031C0.326,-0.018 0.308,-0.008 0.287,-0.001C0.267,0.007 0.243,0.01 0.216,0.01ZM0.259,-0.094C0.282,-0.094 0.301,-0.098 0.318,-0.107C0.335,-0.116 0.349,-0.128 0.358,-0.144C0.368,-0.159 0.373,-0.176 0.373,-0.195L0.373,-0.253C0.368,-0.25 0.362,-0.247 0.354,-0.245C0.345,-0.242 0.336,-0.24 0.326,-0.238C0.316,-0.236 0.306,-0.234 0.296,-0.233C0.285,-0.231 0.276,-0.23 0.268,-0.228C0.25,-0.226 0.235,-0.222 0.221,-0.216C0.208,-0.21 0.198,-0.203 0.19,-0.193C0.183,-0.183 0.179,-0.172 0.179,-0.157C0.179,-0.137 0.187,-0.121 0.202,-0.11C0.217,-0.099 0.236,-0.094 0.259,-0.094Z" style="fill:rgb(211,170,0);fill-rule:nonzero;"/>
    </g>
    <g transform="matrix(203.087,0,0,203.087,830.234,640.526)">
      <path d="M0.212,-0.315L0.212,-0L0.061,-0L0.061,-0.545L0.205,-0.545L0.205,-0.449L0.211,-0.449C0.223,-0.481 0.243,-0.506 0.272,-0.525C0.3,-0.543 0.335,-0.553 0.375,-0.553C0.413,-0.553 0.446,-0.544 0.474,-0.528C0.502,-0.511 0.524,-0.487 0.54,-0.457C0.555,-0.426 0.563,-0.39 0.563,-0.347L0.563,-0L0.412,-0L0.412,-0.32C0.412,-0.354 0.404,-0.38 0.386,-0.399C0.369,-0.418 0.345,-0.427 0.315,-0.427C0.295,-0.427 0.277,-0.423 0.261,-0.414C0.246,-0.405 0.234,-0.392 0.225,-0.376C0.216,-0.359 0.212,-0.339 0.212,-0.315Z" style="fill:rgb(211,170,0);fill-rule:nonzero;"/>
    </g>
    <g transform="matrix(203.087,0,0,203.087,956.528,640.526)"/>
    <g transform="matrix(203.087,0,0,203.087,1003.61,640.526)">
      <path d="M0.197,-0.157L0.198,-0.338L0.22,-0.338L0.395,-0.545L0.568,-0.545L0.334,-0.271L0.297,-0.271L0.197,-0.157ZM0.061,-0L0.061,-0.727L0.212,-0.727L0.212,-0L0.061,-0ZM0.401,-0L0.241,-0.237L0.341,-0.344L0.578,-0L0.401,-0Z" style="fill:rgb(211,170,0);fill-rule:nonzero;"/>
    </g>
    <g transform="matrix(203.087,0,0,203.087,1121.71,640.526)">
      <path d="M0.41,-0.232L0.41,-0.545L0.561,-0.545L0.561,-0L0.416,-0L0.416,-0.099L0.411,-0.099C0.398,-0.067 0.378,-0.041 0.349,-0.022C0.321,-0.003 0.286,0.007 0.245,0.007C0.209,0.007 0.177,-0.001 0.149,-0.018C0.121,-0.034 0.099,-0.058 0.084,-0.088C0.068,-0.119 0.061,-0.156 0.061,-0.198L0.061,-0.545L0.212,-0.545L0.212,-0.225C0.212,-0.193 0.22,-0.167 0.238,-0.149C0.255,-0.13 0.278,-0.121 0.306,-0.121C0.324,-0.121 0.341,-0.125 0.357,-0.133C0.373,-0.142 0.386,-0.154 0.396,-0.171C0.406,-0.187 0.41,-0.208 0.41,-0.232Z" style="fill:rgb(211,170,0);fill-rule:nonzero;"/>
    </g>
    <g transform="matrix(203.087,0,0,203.087,1248,640.526)">
      <path d="M0.061,-0L0.061,-0.545L0.205,-0.545L0.205,-0.449L0.211,-0.449C0.222,-0.481 0.241,-0.507 0.268,-0.525C0.294,-0.543 0.326,-0.553 0.363,-0.553C0.4,-0.553 0.432,-0.543 0.459,-0.525C0.485,-0.506 0.502,-0.481 0.511,-0.449L0.517,-0.449C0.528,-0.48 0.548,-0.506 0.577,-0.524C0.606,-0.543 0.641,-0.553 0.681,-0.553C0.732,-0.553 0.773,-0.536 0.805,-0.504C0.837,-0.472 0.853,-0.426 0.853,-0.367L0.853,-0L0.702,-0L0.702,-0.337C0.702,-0.367 0.694,-0.39 0.678,-0.405C0.662,-0.42 0.642,-0.428 0.618,-0.428C0.59,-0.428 0.569,-0.419 0.553,-0.402C0.538,-0.384 0.53,-0.361 0.53,-0.333L0.53,-0L0.384,-0L0.384,-0.34C0.384,-0.367 0.376,-0.388 0.361,-0.404C0.345,-0.42 0.325,-0.428 0.3,-0.428C0.283,-0.428 0.268,-0.424 0.255,-0.415C0.242,-0.407 0.231,-0.395 0.223,-0.38C0.216,-0.365 0.212,-0.347 0.212,-0.327L0.212,-0L0.061,-0Z" style="fill:rgb(211,170,0);fill-rule:nonzero;"/>
    </g>
    <g transform="matrix(203.087,0,0,203.087,1433.21,640.526)">
      <path d="M0.216,0.01C0.181,0.01 0.15,0.004 0.123,-0.008C0.096,-0.02 0.074,-0.038 0.059,-0.062C0.043,-0.086 0.035,-0.116 0.035,-0.152C0.035,-0.183 0.04,-0.208 0.051,-0.229C0.063,-0.249 0.078,-0.266 0.097,-0.278C0.116,-0.291 0.138,-0.3 0.162,-0.307C0.187,-0.313 0.213,-0.318 0.24,-0.32C0.271,-0.324 0.297,-0.327 0.316,-0.33C0.336,-0.333 0.35,-0.337 0.359,-0.343C0.367,-0.349 0.372,-0.358 0.372,-0.369L0.372,-0.371C0.372,-0.394 0.365,-0.411 0.351,-0.424C0.336,-0.436 0.317,-0.442 0.291,-0.442C0.264,-0.442 0.242,-0.436 0.226,-0.424C0.21,-0.412 0.199,-0.397 0.194,-0.379L0.054,-0.391C0.061,-0.424 0.075,-0.452 0.096,-0.477C0.117,-0.501 0.144,-0.52 0.177,-0.533C0.21,-0.546 0.248,-0.553 0.291,-0.553C0.322,-0.553 0.351,-0.549 0.379,-0.542C0.407,-0.535 0.431,-0.524 0.453,-0.509C0.474,-0.494 0.492,-0.475 0.504,-0.452C0.517,-0.428 0.523,-0.4 0.523,-0.368L0.523,-0L0.38,-0L0.38,-0.076L0.375,-0.076C0.366,-0.059 0.355,-0.044 0.34,-0.031C0.326,-0.018 0.308,-0.008 0.287,-0.001C0.267,0.007 0.243,0.01 0.216,0.01ZM0.259,-0.094C0.282,-0.094 0.301,-0.098 0.318,-0.107C0.335,-0.116 0.349,-0.128 0.358,-0.144C0.368,-0.159 0.373,-0.176 0.373,-0.195L0.373,-0.253C0.368,-0.25 0.362,-0.247 0.354,-0.245C0.345,-0.242 0.336,-0.24 0.326,-0.238C0.316,-0.236 0.306,-0.234 0.296,-0.233C0.285,-0.231 0.276,-0.23 0.268,-0.228C0.25,-0.226 0.235,-0.222 0.221,-0.216C0.208,-0.21 0.198,-0.203 0.19,-0.193C0.183,-0.183 0.179,-0.172 0.179,-0.157C0.179,-0.137 0.187,-0.121 0.202,-0.11C0.217,-0.099 0.236,-0.094 0.259,-0.094Z" style="fill:rgb(211,170,0);fill-rule:nonzero;"/>
    </g>
    <g transform="matrix(203.087,0,0,203.087,1551.02,640.526)">
      <path d="M0.061,-0L0.061,-0.545L0.207,-0.545L0.207,-0.45L0.213,-0.45C0.223,-0.484 0.239,-0.51 0.263,-0.527C0.286,-0.544 0.313,-0.553 0.344,-0.553C0.351,-0.553 0.359,-0.553 0.368,-0.552C0.377,-0.551 0.385,-0.55 0.391,-0.548L0.391,-0.414C0.384,-0.416 0.374,-0.418 0.362,-0.419C0.349,-0.421 0.338,-0.422 0.327,-0.422C0.305,-0.422 0.285,-0.417 0.268,-0.407C0.25,-0.398 0.237,-0.385 0.227,-0.368C0.217,-0.351 0.212,-0.331 0.212,-0.309L0.212,-0L0.061,-0Z" style="fill:rgb(211,170,0);fill-rule:nonzero;"/>
    </g>
    <g transform="matrix(203.087,0,0,203.087,1634.04,640.526)"/>
  </g>
</svg>